<?xml version="1.0" encoding="UTF-8" standalone="no"?>
<!-- Generator: Adobe Illustrator 18.0.0, SVG Export Plug-In . SVG Version: 6.00 Build 0)  -->

<svg
   xmlns:dc="http://purl.org/dc/elements/1.1/"
   xmlns:cc="http://creativecommons.org/ns#"
   xmlns:rdf="http://www.w3.org/1999/02/22-rdf-syntax-ns#"
   xmlns:svg="http://www.w3.org/2000/svg"
   xmlns="http://www.w3.org/2000/svg"
   xmlns:sodipodi="http://sodipodi.sourceforge.net/DTD/sodipodi-0.dtd"
   xmlns:inkscape="http://www.inkscape.org/namespaces/inkscape"
   version="1.1"
   id="Capa_1"
   x="0px"
   y="0px"
   viewBox="0 0 392 392"
   xml:space="preserve"
   sodipodi:docname="brightness.svg"
   width="392"
   height="392"
   inkscape:version="0.92.2 5c3e80d, 2017-08-06"><metadata
     id="metadata3841"><rdf:RDF><cc:Work
         rdf:about=""><dc:format>image/svg+xml</dc:format><dc:type
           rdf:resource="http://purl.org/dc/dcmitype/StillImage" /><dc:title></dc:title></cc:Work></rdf:RDF></metadata><defs
     id="defs3839" /><sodipodi:namedview
     pagecolor="#ffffff"
     bordercolor="#666666"
     borderopacity="1"
     objecttolerance="10"
     gridtolerance="10"
     guidetolerance="10"
     inkscape:pageopacity="0"
     inkscape:pageshadow="2"
     inkscape:window-width="956"
     inkscape:window-height="1060"
     id="namedview3837"
     showgrid="false"
     inkscape:snap-page="false"
     inkscape:snap-grids="true"
     inkscape:snap-to-guides="true"
     showguides="false"
     inkscape:pagecheckerboard="true"
     inkscape:zoom="1.8101934"
     inkscape:cx="227.17365"
     inkscape:cy="208.65598"
     inkscape:window-x="0"
     inkscape:window-y="18"
     inkscape:window-maximized="0"
     inkscape:current-layer="Capa_1"><inkscape:grid
       type="xygrid"
       id="grid4328" /></sodipodi:namedview><g
     id="g3804"
     style="fill:#cccccc"><path
       d="m 196,121 c -41.355,0 -75,33.645 -75,75 0,41.355 33.644,75 75,75 41.355,0 75,-33.645 75,-75 0,-41.355 -33.645,-75 -75,-75 z m 0,120 c -24.813,0 -45,-20.186 -45,-45 0,-24.814 20.187,-45 45,-45 24.813,0 45,20.186 45,45 0,24.814 -20.187,45 -45,45 z"
       id="path3790"
       inkscape:connector-curvature="0"
       style="fill:#cccccc" /><path
       d="m 299.514,161.254 c 4.241,0 8.54,-1.08 12.477,-3.354 l 44.6,-25.75 c 11.957,-6.903 16.054,-22.193 9.15,-34.15 -6.904,-11.957 -22.193,-16.056 -34.15,-9.15 l -44.6,25.75 c -11.957,6.903 -16.054,22.193 -9.15,34.15 4.63,8.02 13.032,12.504 21.673,12.504 z"
       id="path3792"
       inkscape:connector-curvature="0"
       style="fill:#cccccc" /><path
       d="m 356.59,259.85 -44.6,-25.75 c -11.957,-6.905 -27.248,-2.807 -34.15,9.15 -6.903,11.957 -2.807,27.247 9.15,34.15 l 44.6,25.75 c 3.938,2.273 8.235,3.354 12.477,3.354 8.64,0 17.044,-4.483 21.674,-12.504 6.903,-11.957 2.806,-27.247 -9.151,-34.15 z"
       id="path3794"
       inkscape:connector-curvature="0"
       style="fill:#cccccc" /><path
       d="m 196,290.5 c -13.808,0 -25,11.192 -25,25 V 367 c 0,13.808 11.192,25 25,25 13.808,0 25,-11.192 25,-25 v -51.5 c 0,-13.808 -11.192,-25 -25,-25 z"
       id="path3796"
       inkscape:connector-curvature="0"
       style="fill:#cccccc" /><path
       d="m 80.01,234.1 -44.6,25.75 c -11.957,6.903 -16.054,22.193 -9.15,34.15 4.631,8.021 13.033,12.504 21.674,12.504 4.241,0 8.54,-1.08 12.477,-3.354 l 44.6,-25.75 c 11.957,-6.903 16.054,-22.193 9.15,-34.15 -6.904,-11.957 -22.194,-16.057 -34.151,-9.15 z"
       id="path3798"
       inkscape:connector-curvature="0"
       style="fill:#cccccc" /><path
       d="M 105.01,114.6 60.41,88.85 C 48.452,81.944 33.162,86.042 26.26,98 c -6.903,11.957 -2.807,27.247 9.15,34.15 l 44.6,25.75 c 3.938,2.273 8.235,3.354 12.477,3.354 8.64,0 17.044,-4.483 21.674,-12.504 6.902,-11.957 2.806,-27.247 -9.151,-34.15 z"
       id="path3800"
       inkscape:connector-curvature="0"
       style="fill:#cccccc" /><path
       d="m 196,101.5 c 13.808,0 25,-11.192 25,-25 V 25 C 221,11.192 209.808,0 196,0 182.192,0 171,11.192 171,25 v 51.5 c 0,13.808 11.192,25 25,25 z"
       id="path3802"
       inkscape:connector-curvature="0"
       style="fill:#cccccc" /></g><g
     id="g3806"
     style="fill:#cccccc" /><g
     id="g3808"
     style="fill:#cccccc" /><g
     id="g3810"
     style="fill:#cccccc" /><g
     id="g3812"
     style="fill:#cccccc" /><g
     id="g3814"
     style="fill:#cccccc" /><g
     id="g3816"
     style="fill:#cccccc" /><g
     id="g3818"
     style="fill:#cccccc" /><g
     id="g3820"
     style="fill:#cccccc" /><g
     id="g3822"
     style="fill:#cccccc" /><g
     id="g3824"
     style="fill:#cccccc" /><g
     id="g3826"
     style="fill:#cccccc" /><g
     id="g3828"
     style="fill:#cccccc" /><g
     id="g3830"
     style="fill:#cccccc" /><g
     id="g3832"
     style="fill:#cccccc" /><g
     id="g3834"
     style="fill:#cccccc" /></svg>